<svg width="24" height="24" viewBox="0 0 24 24" fill="none" xmlns="http://www.w3.org/2000/svg">
<g clip-path="url(#clip0_1696_26806)">
<path d="M12.0009 14C11.4509 14 11.0009 13.55 11.0009 13V7.00003C11.0009 6.45003 11.4509 6.00003 12.0009 6.00003C12.5509 6.00003 13.0009 6.45003 13.0009 7.00003V13C13.0009 13.55 12.5509 14 12.0009 14ZM12.0009 16C11.4509 16 11.0009 16.45 11.0009 17C11.0009 17.55 11.4509 18 12.0009 18C12.5509 18 13.0009 17.55 13.0009 17C13.0009 16.45 12.5509 16 12.0009 16ZM14.1209 23.16L16.2809 21H18.0009C19.6509 21 21.0009 19.65 21.0009 18V16.28L23.1609 14.12C23.7309 13.55 24.0409 12.8 24.0409 12C24.0409 11.2 23.7309 10.45 23.1609 9.88003L21.0009 7.72003V6.00003C21.0009 4.35002 19.6509 3.00002 18.0009 3.00002H16.2809L14.1209 0.840024C12.9509 -0.329976 11.0509 -0.329976 9.88094 0.840024L7.72094 3.00002H6.00094C4.35094 3.00002 3.00094 4.35002 3.00094 6.00003V7.72003L0.840937 9.88003C0.280937 10.45 -0.0390625 11.2 -0.0390625 12C-0.0390625 12.8 0.270937 13.55 0.840937 14.12L3.00094 16.28V18C3.00094 19.65 4.35094 21 6.00094 21H7.72094L9.88094 23.16C10.4609 23.74 11.2309 24.04 12.0009 24.04C12.7709 24.04 13.5409 23.75 14.1209 23.16ZM8.13094 5.00002C8.40094 5.00002 8.65094 4.89003 8.84094 4.71002L11.2909 2.26002C11.6809 1.87002 12.3109 1.87002 12.7009 2.26002L15.1509 4.71002C15.3409 4.90002 15.5909 5.00002 15.8609 5.00002H17.9909C18.5409 5.00002 18.9909 5.45003 18.9909 6.00003V8.14003C18.9909 8.41003 19.1009 8.66003 19.2809 8.85003L21.7309 11.3C21.9209 11.49 22.0209 11.74 22.0209 12.01C22.0209 12.28 21.9209 12.53 21.7309 12.72L19.2809 15.17C19.0909 15.36 18.9909 15.61 18.9909 15.88V18.02C18.9909 18.57 18.5409 19.02 17.9909 19.02H15.8509C15.5809 19.02 15.3309 19.13 15.1409 19.31L12.6909 21.76C12.3009 22.15 11.6709 22.15 11.2809 21.76L8.83094 19.31C8.64094 19.12 8.39094 19.02 8.12094 19.02H5.98094C5.43094 19.02 4.98094 18.57 4.98094 18.02V15.88C4.98094 15.61 4.87094 15.36 4.69094 15.17L2.24094 12.72C2.05094 12.53 1.95094 12.28 1.95094 12.01C1.95094 11.74 2.05094 11.49 2.24094 11.3L4.69094 8.85003C4.88094 8.66003 4.98094 8.41003 4.98094 8.14003V6.00003C4.98094 5.45003 5.43094 5.00002 5.98094 5.00002H8.11094H8.13094Z" fill="#E91111"/>
</g>
<defs>
<clipPath id="clip0_1696_26806">
<rect width="24" height="24" fill="white"/>
</clipPath>
</defs>
</svg>
